<?xml version="1.0" standalone="no"?>
<!DOCTYPE svg PUBLIC "-//W3C//DTD SVG 20010904//EN"
 "http://www.w3.org/TR/2001/REC-SVG-20010904/DTD/svg10.dtd">
<svg version="1.0" xmlns="http://www.w3.org/2000/svg"
 width="881.000000pt" height="881.000000pt" viewBox="0 0 881.000000 881.000000"
 preserveAspectRatio="xMidYMid meet">
<metadata>
Created by potrace 1.14, written by Peter Selinger 2001-2017
</metadata>
<g transform="translate(0.000000,881.000000) scale(0.100000,-0.100000)"
fill="#000000" stroke="none">
<path d="M4384 8769 c-3 -5 -11 -6 -17 -2 -7 4 -6 0 2 -10 11 -15 11 -17 -2
-17 -8 0 -21 -8 -28 -17 -12 -14 -12 -16 1 -9 8 4 7 1 -4 -8 -11 -9 -15 -20
-10 -28 6 -10 4 -10 -9 1 -15 12 -17 12 -11 -3 3 -9 1 -16 -5 -16 -6 0 -11 -7
-11 -16 0 -8 -4 -12 -10 -9 -5 3 -10 -1 -10 -10 0 -11 -5 -15 -15 -11 -13 4
-14 2 -5 -14 9 -17 8 -19 -7 -13 -10 3 -15 3 -11 -1 3 -4 0 -15 -9 -24 -63
-71 -93 -109 -93 -119 0 -6 -5 -15 -12 -19 -7 -5 -8 -3 -3 6 5 9 4 11 -4 6 -6
-4 -9 -11 -6 -16 6 -10 -30 -51 -38 -43 -3 3 -3 -6 0 -19 4 -18 3 -20 -6 -8
-9 13 -11 13 -11 -2 0 -10 -5 -18 -11 -18 -5 0 -7 -5 -3 -12 5 -7 2 -9 -8 -5
-12 4 -15 0 -14 -18 2 -15 -1 -22 -9 -18 -7 2 -16 -1 -21 -8 -4 -8 -3 -10 4
-5 7 4 12 2 12 -3 0 -6 -7 -11 -15 -11 -8 0 -15 -5 -15 -11 0 -15 -26 -39 -34
-31 -4 3 -4 -2 0 -12 5 -14 4 -17 -4 -12 -7 4 -12 1 -12 -7 0 -8 -7 -17 -15
-21 -8 -3 -15 -12 -15 -20 0 -7 -7 -17 -16 -20 -8 -3 -13 -10 -10 -15 3 -5 -4
-11 -15 -14 -15 -4 -20 -11 -16 -21 4 -11 1 -16 -11 -16 -13 0 -14 -2 -4 -9
10 -6 8 -10 -8 -14 -12 -3 -19 -10 -15 -16 3 -6 2 -11 -4 -11 -5 0 -18 -13
-27 -29 -10 -17 -21 -28 -26 -25 -4 3 -5 -3 -1 -12 4 -12 3 -15 -5 -10 -7 4
-12 1 -12 -9 0 -9 -4 -13 -10 -10 -5 3 -10 -3 -10 -15 0 -14 -4 -19 -12 -14
-8 5 -9 2 -5 -10 4 -9 3 -15 -2 -12 -9 6 -26 -22 -22 -37 1 -5 -3 -6 -8 -3 -9
6 -26 -22 -23 -36 1 -5 -3 -7 -10 -5 -6 1 -17 -8 -23 -20 -7 -13 -15 -20 -18
-16 -4 3 -7 -4 -7 -16 0 -17 -4 -21 -16 -17 -8 3 -12 2 -9 -4 3 -6 1 -10 -4
-10 -6 0 -11 -7 -11 -15 0 -8 -9 -23 -20 -32 -11 -10 -20 -23 -20 -31 0 -7 -4
-10 -10 -7 -10 6 -14 -8 -10 -34 2 -13 0 -13 -16 0 -10 7 -15 9 -11 2 4 -6 1
-15 -7 -20 -14 -8 -16 -12 -16 -34 0 -5 -5 -7 -12 -3 -8 5 -9 2 -5 -9 4 -10 2
-16 -5 -14 -7 1 -12 -4 -13 -11 0 -8 -8 -20 -19 -27 -10 -8 -15 -19 -11 -25 3
-6 3 -10 -2 -9 -21 4 -34 -2 -27 -13 5 -8 2 -9 -11 -4 -13 5 -15 3 -8 -6 11
-15 -20 -51 -33 -40 -4 4 -4 2 0 -5 4 -7 -4 -22 -19 -35 -14 -12 -23 -28 -20
-36 4 -10 0 -12 -11 -8 -13 5 -15 2 -11 -13 3 -15 0 -19 -14 -16 -11 2 -16 -1
-13 -9 2 -6 -8 -26 -23 -44 -16 -17 -38 -43 -50 -58 -13 -14 -23 -30 -23 -35
0 -6 -4 -7 -10 -4 -5 3 -10 -2 -10 -13 0 -10 -11 -28 -25 -40 -14 -13 -23 -28
-19 -34 4 -6 3 -9 -2 -6 -8 5 -41 -23 -46 -39 -2 -5 -7 -7 -11 -5 -5 1 -6 -2
-2 -8 3 -5 1 -10 -6 -10 -7 0 -10 -3 -6 -6 3 -3 -6 -17 -20 -30 -14 -13 -22
-24 -17 -24 5 0 1 -5 -8 -11 -10 -5 -18 -16 -18 -23 0 -8 -10 -21 -22 -30 -13
-9 -16 -14 -8 -10 8 4 -1 -8 -20 -25 -19 -18 -28 -29 -20 -25 8 4 3 -4 -12
-19 -16 -14 -28 -33 -28 -42 0 -9 -4 -13 -10 -10 -5 3 -10 1 -10 -5 0 -6 -4
-9 -9 -6 -5 3 -8 -2 -7 -12 0 -9 -5 -16 -12 -14 -6 1 -12 -1 -11 -5 1 -5 -2
-18 -6 -31 -6 -19 -10 -20 -23 -10 -13 11 -14 11 -8 0 4 -7 2 -20 -6 -29 -11
-14 -11 -16 2 -9 8 4 6 1 -4 -8 -10 -8 -22 -13 -26 -11 -4 2 -5 -7 -2 -20 2
-14 8 -25 12 -25 4 0 6 -14 4 -31 -2 -18 0 -28 6 -24 6 3 7 -1 4 -9 -4 -9 -1
-16 6 -16 10 0 10 -3 0 -15 -9 -10 -9 -15 -1 -15 6 0 11 -9 11 -21 0 -11 4
-17 10 -14 6 4 7 -1 3 -10 -3 -10 0 -20 6 -25 7 -4 13 -13 14 -21 2 -8 6 -20
10 -26 5 -7 6 -17 3 -22 -3 -5 1 -12 10 -15 13 -5 14 -9 4 -21 -10 -12 -9 -15
6 -15 16 0 17 -2 4 -10 -13 -8 -13 -10 1 -10 19 0 33 -26 19 -35 -6 -4 -10
-12 -9 -18 0 -9 2 -9 6 0 3 10 8 10 19 -1 16 -17 19 -30 3 -21 -16 11 14 -38
33 -53 10 -7 15 -19 11 -29 -4 -11 -3 -14 5 -9 8 5 10 2 6 -8 -3 -9 -1 -16 5
-16 6 0 11 -7 11 -17 0 -14 -3 -14 -22 3 -21 17 -21 16 1 -9 14 -15 30 -27 38
-27 7 0 13 -4 13 -10 0 -5 -8 -6 -17 -3 -14 6 -15 4 -5 -8 7 -8 20 -23 28 -34
15 -20 15 -20 5 1 -7 15 -7 21 3 21 7 0 12 -11 11 -28 -1 -19 2 -26 12 -22 8
3 13 2 12 -3 -4 -23 2 -35 14 -28 7 5 6 0 -3 -11 -8 -10 -10 -16 -5 -13 6 4
19 -1 30 -9 20 -15 20 -15 -2 -9 -12 4 -24 2 -29 -5 -4 -7 -3 -9 4 -6 5 4 21
3 34 -2 21 -9 21 -10 3 -11 -19 -1 -18 -2 2 -10 13 -5 31 -23 41 -40 10 -16
23 -27 28 -22 4 4 2 -1 -5 -10 -12 -16 -11 -18 3 -18 10 0 15 -3 13 -7 -3 -5
1 -13 8 -20 11 -10 15 -10 19 0 3 7 3 2 1 -10 -3 -12 0 -25 6 -29 8 -5 10 -3
4 7 -4 8 4 2 17 -13 14 -15 28 -24 32 -20 4 4 7 3 6 -3 -5 -24 1 -55 11 -55 5
0 7 6 3 13 -4 6 2 3 14 -7 15 -13 21 -27 17 -40 -3 -12 -2 -16 1 -9 7 15 34 5
34 -13 0 -8 7 -14 15 -14 9 0 18 -7 21 -15 4 -8 11 -12 18 -8 6 4 5 -1 -3 -10
-7 -9 -18 -14 -24 -10 -6 3 -7 1 -3 -6 6 -9 11 -9 22 0 10 8 14 8 14 0 0 -6 7
-11 16 -11 8 0 12 -4 9 -10 -3 -6 4 -10 17 -11 22 0 22 -1 3 -9 -18 -7 -16 -8
10 -11 18 -3 34 -13 41 -27 6 -12 15 -26 19 -30 5 -4 5 -1 1 6 -4 6 -3 12 2
12 6 0 12 -7 16 -15 3 -8 0 -15 -6 -15 -6 0 -8 -3 -5 -6 4 -4 13 -1 22 6 13
10 15 9 15 -10 0 -20 2 -21 17 -9 11 10 14 10 9 2 -4 -8 -2 -13 4 -13 6 0 8
-5 4 -12 -5 -8 -2 -9 9 -5 11 4 17 1 17 -7 0 -8 7 -17 16 -20 15 -6 15 -4 3
10 -13 16 -12 16 8 4 12 -8 20 -17 17 -21 -6 -10 26 -20 38 -12 6 3 9 2 6 -3
-2 -5 7 -20 20 -33 16 -15 23 -18 19 -7 -4 9 -2 16 3 16 6 0 10 -9 10 -19 0
-10 7 -22 16 -25 15 -6 15 -4 3 11 -13 16 -12 17 3 5 10 -8 23 -10 30 -6 10 6
10 5 0 -8 -11 -14 -10 -16 7 -11 13 3 21 1 21 -7 0 -7 7 -10 16 -6 14 6 15 4
4 -9 -11 -13 -11 -16 1 -13 8 2 13 -3 11 -10 -1 -8 2 -11 7 -7 6 3 7 13 4 22
-5 13 -3 13 20 -2 15 -9 27 -14 27 -10 0 5 9 0 20 -10 11 -10 20 -15 20 -11 0
4 9 2 20 -4 11 -6 18 -15 15 -20 -3 -5 -1 -11 4 -14 5 -4 13 -1 17 5 5 8 3 9
-6 4 -8 -5 -11 -4 -6 3 4 7 19 5 46 -5 22 -9 37 -20 34 -24 -3 -5 2 -6 10 -3
9 3 13 11 10 16 -4 6 5 3 18 -6 14 -9 28 -13 33 -9 4 5 6 1 3 -8 -4 -9 -1 -16
8 -16 7 0 10 5 7 11 -4 6 1 4 12 -4 10 -8 21 -14 24 -12 16 6 101 -12 101 -22
0 -6 5 -4 10 4 6 10 10 11 10 3 0 -7 5 -13 11 -13 5 0 7 6 3 13 -6 9 -4 9 7 1
8 -6 24 -10 37 -8 12 2 22 -1 22 -7 0 -5 -5 -7 -12 -3 -7 4 -8 3 -4 -4 5 -9
14 -7 32 4 22 15 29 12 25 -10 -1 -5 6 -3 15 5 12 9 15 9 10 2 -4 -7 -3 -13 3
-13 5 0 13 5 16 10 4 7 12 7 24 0 10 -5 35 -8 55 -6 26 3 36 0 36 -10 0 -8 5
-14 11 -14 5 0 7 5 3 11 -4 7 2 9 17 7 16 -2 24 -9 23 -20 -1 -10 2 -15 8 -12
5 3 6 15 3 27 -4 12 -3 17 2 11 4 -5 22 -9 40 -8 18 0 30 -3 27 -7 -3 -5 -1
-9 5 -9 5 0 13 5 16 10 9 15 25 12 25 -5 0 -8 6 -14 13 -12 6 1 11 -4 9 -11
-1 -8 2 -11 9 -7 8 5 8 10 0 18 -15 15 -14 24 4 24 8 0 12 -4 10 -8 -3 -4 2
-10 11 -13 14 -5 14 -9 3 -24 -13 -15 -12 -16 4 -3 12 10 15 17 7 25 -5 5 -10
13 -10 16 0 9 77 6 86 -3 11 -11 26 -9 19 3 -4 6 1 7 11 3 12 -4 15 -3 10 5
-4 7 -5 12 -2 12 3 0 12 -12 21 -27 12 -21 14 -23 10 -6 -3 12 -1 24 5 28 6 4
9 1 8 -6 -2 -6 3 -14 11 -17 8 -3 11 0 7 7 -4 6 -2 11 3 11 6 0 11 -6 11 -12
0 -9 3 -9 8 -2 11 17 41 24 48 12 4 -6 3 -8 -2 -5 -6 3 -16 2 -23 -3 -9 -5 -3
-7 17 -7 16 1 28 6 26 12 -3 6 7 10 23 9 16 -1 34 4 42 10 12 9 13 8 6 -3 -6
-11 -4 -13 11 -7 30 13 68 14 83 2 12 -9 13 -8 7 3 -7 10 -3 12 13 6 14 -4 21
-2 21 7 0 10 3 9 10 -2 6 -10 10 -11 10 -2 0 6 5 12 11 12 5 0 7 -6 4 -12 -4
-7 0 -5 8 4 13 17 15 16 26 -5 11 -22 11 -22 6 3 -6 24 -5 24 9 6 14 -17 16
-18 16 -3 0 19 15 23 25 7 3 -5 12 -10 18 -10 8 0 8 3 -1 9 -11 7 -11 9 2 14
10 4 16 1 16 -9 0 -11 6 -14 16 -10 9 3 18 6 20 6 3 0 2 5 -2 12 -4 6 -3 8 4
4 6 -3 13 -2 17 4 3 6 17 8 31 5 13 -3 35 -7 49 -10 14 -3 25 -1 25 4 0 6 -9
8 -20 6 -11 -2 -23 1 -26 7 -4 6 -3 8 4 4 5 -3 13 0 15 6 4 10 6 10 6 0 1 -9
6 -10 20 -2 14 7 22 7 26 0 4 -6 11 -8 16 -4 5 3 7 9 4 14 -3 4 5 6 17 2 16
-4 19 -2 13 9 -7 11 -6 12 7 2 8 -7 17 -10 20 -8 12 12 48 13 48 2 0 -7 5 -4
11 6 5 9 18 17 27 17 15 0 15 -2 2 -10 -11 -7 -8 -8 13 -6 15 1 30 6 35 11 4
4 2 5 -5 1 -6 -3 -14 -2 -17 3 -8 12 36 19 62 10 13 -5 24 -4 28 3 5 7 2 8 -7
3 -8 -5 -11 -4 -6 1 5 5 21 10 35 10 50 3 53 4 48 12 -3 5 1 9 9 9 8 0 15 -5
16 -11 0 -6 4 -2 9 9 8 18 9 18 9 2 1 -10 6 -15 12 -12 6 4 8 14 4 22 -4 13
-3 14 10 3 8 -7 15 -9 15 -4 0 5 8 -1 18 -14 17 -21 18 -22 18 -3 0 11 -3 18
-7 15 -4 -2 -9 2 -12 10 -4 10 0 12 14 9 10 -3 19 -9 19 -14 0 -5 7 -6 16 -2
14 5 15 3 5 -15 -9 -17 -8 -19 8 -15 13 3 22 -4 32 -26 8 -17 19 -31 25 -31 7
0 15 -7 18 -16 4 -10 2 -13 -7 -9 -6 4 -4 0 5 -8 10 -8 15 -17 11 -20 -3 -4 2
-7 11 -7 12 0 16 -5 12 -16 -3 -8 -2 -12 3 -9 11 6 43 -34 36 -46 -3 -4 2 -10
11 -13 8 -3 12 -11 8 -17 -4 -7 -3 -9 3 -6 6 4 17 -1 24 -10 10 -12 10 -14 2
-9 -7 4 -13 2 -13 -3 0 -6 6 -11 14 -11 8 0 18 -5 22 -12 5 -7 2 -9 -7 -4 -8
4 -4 -1 9 -12 12 -11 22 -25 22 -32 0 -6 5 -8 10 -5 6 3 10 -4 10 -17 0 -18 2
-20 10 -8 7 11 10 11 10 2 0 -7 14 -26 30 -42 17 -17 25 -30 18 -30 -6 0 -3
-6 7 -14 11 -8 24 -12 29 -8 5 3 6 -2 3 -12 -5 -13 -3 -17 7 -13 11 4 13 1 9
-10 -5 -12 -2 -15 10 -10 10 4 16 2 14 -6 -1 -7 4 -11 10 -10 7 2 12 0 12 -5
-3 -18 2 -32 11 -32 17 0 60 -47 52 -56 -4 -5 1 -3 10 4 14 12 16 10 11 -9 -4
-15 -3 -20 6 -15 12 8 41 -16 41 -34 0 -6 4 -9 9 -5 5 3 21 -6 35 -20 14 -14
29 -25 34 -25 6 0 13 -7 16 -16 3 -8 10 -12 16 -9 5 3 10 1 10 -4 0 -6 5 -11
10 -11 6 0 19 -8 29 -18 41 -37 76 -57 94 -54 4 1 7 -5 7 -14 0 -8 5 -12 10
-9 6 3 10 1 10 -5 0 -6 4 -8 10 -5 6 3 10 1 10 -5 0 -7 6 -10 14 -7 17 7 39
-16 28 -28 -4 -5 0 -6 9 -3 8 3 26 -2 39 -12 13 -10 30 -15 39 -12 10 4 12 1
6 -8 -6 -10 -3 -12 13 -8 12 4 20 2 16 -3 -3 -5 4 -9 15 -9 12 0 21 -5 21 -11
0 -5 5 -7 10 -4 6 3 10 2 10 -4 0 -6 7 -7 17 -4 11 4 14 3 9 -6 -9 -14 16 -11
26 4 5 6 8 3 8 -7 0 -12 6 -15 22 -10 16 4 19 2 13 -9 -7 -11 -5 -11 10 1 15
12 17 12 10 1 -6 -11 -4 -13 8 -8 10 4 17 1 17 -6 0 -8 4 -6 10 3 7 11 10 12
10 2 0 -9 7 -11 20 -7 13 4 20 2 20 -7 0 -10 3 -9 10 2 5 8 10 10 10 3 0 -12
17 -12 37 0 6 4 14 3 18 -3 9 -15 28 -12 19 3 -5 9 -4 9 6 0 8 -8 20 -9 36 -3
17 7 24 6 24 -2 0 -9 3 -9 11 -1 6 6 18 9 27 6 10 -4 13 -2 8 5 -4 7 -3 12 3
12 5 0 13 -5 16 -11 5 -7 14 -4 26 7 15 13 19 14 19 3 0 -8 3 -10 8 -4 11 16
47 41 39 28 -11 -18 28 -4 52 18 14 13 21 15 21 7 0 -8 4 -6 11 4 5 10 16 15
25 11 9 -3 14 0 12 8 -2 8 4 14 12 14 8 0 21 7 28 15 12 13 13 13 7 0 -4 -9 0
-7 9 4 8 10 20 15 27 10 8 -5 10 -3 4 6 -6 10 -4 12 11 6 10 -4 16 -4 12 -1
-10 11 30 45 53 45 13 0 18 4 13 12 -5 8 -2 9 10 5 13 -5 17 -3 13 7 -4 10 0
14 14 11 17 -3 23 5 20 27 0 4 9 5 20 3 11 -2 22 2 26 10 3 8 11 15 19 15 8 0
13 6 11 13 -1 7 6 11 17 9 10 -2 15 1 12 6 -3 5 1 15 9 22 13 11 14 10 9 -6
-7 -18 -6 -18 13 1 11 11 18 25 15 30 -3 6 -2 7 3 3 4 -4 14 0 22 10 8 9 12
12 9 6 -3 -6 1 -11 8 -11 8 0 12 6 10 12 -5 11 21 40 35 40 3 0 5 4 3 8 -1 5
1 6 6 3 5 -3 16 4 25 15 10 11 22 17 27 14 6 -3 10 0 10 7 0 9 3 9 10 -2 8
-12 10 -10 10 9 0 16 4 21 15 17 9 -3 15 0 15 8 0 14 28 31 44 27 5 -1 6 5 2
14 -3 9 -2 14 2 11 4 -2 21 2 37 10 17 8 22 12 12 9 -10 -3 -15 -1 -12 5 3 6
13 10 21 10 9 0 12 5 8 12 -4 6 -3 8 3 5 6 -4 19 1 29 9 10 9 14 13 7 10 -6
-4 -14 -2 -18 4 -3 5 0 10 7 11 7 0 3 4 -10 10 -15 6 -21 13 -16 21 5 8 0 7
-11 -2 -10 -8 -16 -10 -12 -4 4 6 -3 20 -15 30 -14 12 -19 14 -13 4 4 -8 -2
-5 -14 8 -12 12 -26 22 -31 22 -6 0 -10 8 -10 18 0 14 -2 15 -10 2 -9 -13 -10
-13 -11 0 -1 8 -1 18 0 22 0 5 -2 7 -7 7 -21 -4 -42 2 -37 10 3 5 -4 12 -15
16 -11 3 -20 11 -20 17 0 5 -7 8 -15 4 -8 -3 -14 -2 -12 2 1 4 -2 8 -6 9 -5 1
-17 11 -26 22 -10 12 -24 21 -30 21 -7 0 -9 5 -6 10 3 6 -1 10 -10 10 -10 0
-13 5 -9 13 4 6 4 9 -1 5 -11 -11 -47 11 -39 24 4 7 2 8 -5 4 -14 -9 -43 12
-35 25 3 5 -4 9 -16 9 -14 0 -19 4 -14 13 5 7 0 6 -11 -3 -11 -9 -16 -10 -11
-2 4 6 2 12 -3 12 -6 0 -11 8 -11 18 0 14 -2 15 -10 2 -8 -13 -10 -13 -10 1 0
9 -8 23 -17 30 -11 10 -14 10 -9 2 4 -7 2 -13 -3 -13 -6 0 -11 7 -11 16 0 8
-4 13 -9 9 -5 -3 -16 3 -23 12 -7 10 -22 23 -33 30 -11 6 -19 16 -17 23 1 6
-2 9 -7 6 -5 -4 -16 1 -24 9 -9 8 -20 15 -25 15 -6 0 -13 7 -16 16 -4 10 -12
14 -23 10 -10 -4 -14 -4 -11 0 8 8 -10 28 -35 37 -10 4 -15 11 -12 17 3 5 0 8
-7 5 -7 -3 -18 5 -23 17 -6 13 -16 22 -23 21 -7 -2 -21 5 -31 15 -37 33 -50
42 -62 42 -6 0 -8 7 -5 17 4 10 4 14 0 10 -4 -4 -17 1 -28 10 -20 17 -20 17
-6 -1 14 -18 14 -18 -7 -6 -12 8 -19 18 -17 22 3 4 -2 8 -11 8 -11 0 -15 5
-12 14 4 10 0 12 -15 8 -14 -3 -19 -1 -14 6 6 11 1 14 -20 11 -3 0 -14 9 -23
20 -10 12 -22 21 -25 21 -11 0 -36 27 -36 39 0 5 -9 8 -20 6 -14 -3 -20 2 -20
16 0 12 -7 19 -20 19 -11 0 -20 5 -20 11 0 5 -4 7 -10 4 -5 -3 -10 1 -10 9 0
8 -5 18 -12 22 -7 5 -9 2 -4 -7 5 -8 2 -8 -6 2 -7 9 -19 14 -26 12 -8 -3 -10
1 -5 13 5 14 3 16 -11 11 -11 -5 -15 -3 -10 5 5 8 2 9 -9 5 -10 -4 -16 -2 -14
6 1 7 -4 11 -10 10 -7 -2 -13 1 -13 6 0 5 -9 13 -20 16 -11 3 -20 13 -20 21 0
8 -8 14 -19 14 -21 0 -44 23 -33 34 4 4 2 6 -3 5 -11 -3 -75 28 -75 37 0 2 10
0 23 -6 22 -11 22 -11 2 5 -11 9 -32 19 -47 22 -20 4 -25 10 -23 25 3 16 1 17
-10 8 -10 -9 -15 -6 -20 11 -5 15 -10 18 -15 9 -5 -9 -9 -8 -13 4 -3 8 -3 17
1 19 4 2 1 2 -7 0 -8 -2 -23 6 -33 17 -10 11 -26 20 -36 20 -15 0 -15 2 -2 11
12 9 11 10 -8 6 -12 -3 -20 -1 -16 4 3 5 -3 9 -13 9 -15 0 -16 2 -3 10 12 8
11 10 -5 10 -11 0 -27 9 -35 20 -8 11 -20 20 -26 20 -6 0 -19 10 -28 23 -9 12
-14 16 -10 9 5 -11 2 -11 -14 -1 -12 7 -18 17 -16 21 3 4 -2 8 -11 8 -8 0 -20
10 -25 23 -5 12 -9 16 -9 8 -1 -7 -17 5 -37 28 -20 22 -43 41 -51 41 -8 0 -11
5 -8 10 3 6 -3 10 -15 10 -12 0 -18 5 -15 10 3 6 -1 10 -9 10 -9 0 -16 7 -16
16 0 11 -6 14 -21 9 -19 -6 -20 -5 -9 15 7 13 8 20 2 16 -6 -3 -17 0 -25 8 -8
8 -17 13 -20 10 -3 -3 -8 4 -12 15 -3 12 -11 19 -16 15 -6 -3 -13 3 -16 14 -2
11 -16 25 -29 31 -15 7 -22 16 -18 23 4 7 3 8 -4 4 -7 -4 -12 -3 -12 3 0 5 -9
13 -20 16 -11 3 -20 11 -20 16 0 14 -56 69 -69 69 -6 0 -10 6 -9 13 2 6 -3 11
-11 9 -9 -2 -11 3 -7 13 3 9 2 14 -2 12 -9 -6 -33 19 -25 27 4 3 -3 6 -15 6
-12 0 -21 6 -20 13 2 6 -3 11 -11 9 -12 -3 -12 -1 0 14 9 12 9 15 2 10 -8 -4
-13 -2 -13 6 0 9 -3 9 -10 -2 -8 -12 -10 -10 -10 8 0 13 -4 20 -10 17 -5 -3
-10 0 -10 7 0 8 -9 20 -20 28 -11 8 -20 20 -20 28 0 7 -4 10 -10 7 -5 -3 -10
0 -10 7 0 7 -9 19 -20 26 -11 7 -20 19 -20 28 0 8 -4 12 -10 9 -5 -3 -12 6
-16 21 -5 20 -9 23 -16 12 -7 -9 -8 -7 -5 10 3 12 2 20 -3 17 -13 -8 -32 23
-24 37 5 8 1 8 -11 -2 -11 -9 -16 -10 -11 -2 4 7 2 12 -4 12 -7 0 -9 7 -6 16
3 8 2 12 -4 9 -6 -3 -10 -2 -10 3 0 5 -8 18 -17 30 -10 11 -24 29 -32 41 -8
11 -18 18 -23 15 -7 -5 -13 28 -9 50 1 5 -4 4 -12 -2 -16 -14 -27 -6 -27 20 0
10 -4 18 -9 18 -5 0 -11 9 -14 20 -3 11 -13 20 -22 20 -15 0 -16 2 -4 18 7 9
10 14 5 10 -11 -9 -46 23 -39 35 4 6 -1 8 -10 4 -9 -3 -16 -3 -16 1 2 15 -14
52 -22 52 -5 0 -9 7 -9 16 0 8 -3 13 -7 11 -5 -3 -14 1 -21 9 -7 8 -9 14 -5
14 4 0 -1 7 -11 15 -11 8 -16 15 -10 15 5 0 1 7 -9 14 -10 8 -20 23 -21 33 -2
10 -12 23 -24 29 -12 6 -19 14 -15 17 3 4 1 7 -6 7 -7 0 -9 5 -6 10 3 6 -1 10
-11 10 -14 0 -14 3 -4 15 11 13 10 14 -4 9 -12 -5 -19 0 -23 15 -3 11 -10 21
-15 21 -5 0 -6 5 -3 10 3 6 -1 10 -9 10 -9 0 -16 5 -16 11 0 5 5 7 12 3 7 -4
8 -3 4 5 -6 9 -11 9 -22 0 -9 -7 -14 -8 -13 -3 4 21 -1 57 -8 51 -10 -11 -33
13 -33 34 0 11 -7 19 -16 19 -10 0 -14 5 -10 16 3 8 2 12 -3 9 -5 -3 -12 4
-16 15 -4 11 -11 17 -17 14 -7 -5 -9 -1 -5 9 3 9 3 16 -1 16 -4 -1 -14 -1 -22
0 -12 1 -13 3 -1 10 11 7 9 10 -9 16 -18 6 -20 9 -9 16 11 7 11 9 -3 9 -12 0
-15 5 -11 17 4 10 2 14 -5 9 -12 -7 -35 28 -24 38 3 4 -1 4 -11 0 -14 -5 -17
0 -17 22 0 21 -3 25 -9 15 -7 -11 -10 -9 -16 8 -3 11 -12 21 -18 21 -7 0 -6 4
3 10 13 9 13 10 0 11 -8 1 -19 1 -23 0 -5 -1 -6 2 -3 7 3 5 -4 14 -14 22 -10
8 -17 17 -14 22 3 4 0 8 -7 8 -7 0 -9 3 -6 6 4 4 -2 14 -12 23 -10 9 -23 26
-30 39 -7 12 -16 20 -22 17 -5 -4 -9 6 -9 20 0 20 -4 26 -15 21 -8 -3 -14 -2
-14 2 2 17 -14 51 -22 46 -5 -3 -9 2 -9 10 0 9 -6 16 -14 16 -9 0 -13 9 -12
24 2 17 -1 23 -10 19 -8 -3 -18 6 -24 22 -6 16 -14 23 -22 19 -7 -4 -8 -3 -4
4 4 6 -2 20 -14 32 -11 11 -20 23 -20 26 0 12 -28 33 -35 26 -5 -4 -5 -1 0 7
5 10 -1 22 -21 40 -17 14 -23 22 -15 16 10 -7 9 -2 -3 18 -18 27 -33 38 -21
15 4 -7 -1 -4 -9 6 -9 11 -16 24 -16 29 0 5 -15 23 -32 40 -18 16 -24 24 -13
16 11 -7 0 6 -24 29 -28 26 -41 47 -38 56 4 9 1 15 -5 13 -6 -1 -17 8 -23 20
-7 13 -15 20 -18 16 -4 -3 -7 3 -7 14 0 33 -51 65 -66 42z m47 -16 c13 -16 12
-17 -3 -4 -10 7 -18 15 -18 17 0 8 8 3 21 -13z m2130 -2580 c13 -16 12 -17 -3
-4 -10 7 -18 15 -18 17 0 8 8 3 21 -13z m-1134 -1235 c-3 -8 -6 -5 -6 6 -1 11
2 17 5 13 3 -3 4 -12 1 -19z"/>
<path d="M4520 8636 c0 -2 8 -10 18 -17 15 -13 16 -12 3 4 -13 16 -21 21 -21
13z"/>
<path d="M2915 5831 c-3 -5 -2 -12 3 -15 5 -3 9 1 9 9 0 17 -3 19 -12 6z"/>
<path d="M3010 5720 c0 -5 5 -10 11 -10 5 0 7 5 4 10 -3 6 -8 10 -11 10 -2 0
-4 -4 -4 -10z"/>
<path d="M3016 5692 c-2 -4 0 -14 6 -22 8 -12 9 -12 5 2 -3 9 -1 19 6 22 9 3
9 5 0 5 -6 1 -14 -3 -17 -7z"/>
<path d="M3110 5570 c0 -5 6 -9 13 -7 6 1 11 -4 10 -10 -2 -7 2 -13 7 -13 14
0 13 13 -2 28 -15 15 -28 16 -28 2z"/>
<path d="M3175 5470 c3 -5 8 -10 11 -10 2 0 4 5 4 10 0 6 -5 10 -11 10 -5 0
-7 -4 -4 -10z"/>
<path d="M3295 5350 c3 -5 8 -10 11 -10 2 0 4 5 4 10 0 6 -5 10 -11 10 -5 0
-7 -4 -4 -10z"/>
<path d="M3366 5315 c-11 -8 -15 -15 -9 -15 7 0 15 5 18 10 4 6 11 7 17 4 7
-4 8 -2 4 4 -9 14 -7 15 -30 -3z"/>
<path d="M3390 5293 c0 -6 8 -17 18 -24 16 -13 16 -13 2 6 -8 11 -16 22 -17
24 -2 2 -3 0 -3 -6z"/>
<path d="M1400 5135 c-7 -8 -15 -13 -19 -10 -4 2 -20 -2 -35 -10 -14 -8 -24
-11 -22 -6 3 4 -1 8 -9 8 -8 0 -12 -4 -9 -9 3 -4 -4 -8 -16 -8 -12 0 -19 -4
-15 -9 3 -6 -3 -8 -14 -6 -11 2 -25 -3 -31 -10 -6 -8 -19 -11 -27 -8 -11 4
-14 2 -9 -5 4 -7 2 -13 -3 -13 -34 -4 -61 -20 -54 -32 3 -6 1 -7 -6 -3 -10 7
-72 -29 -79 -46 -2 -4 -13 -8 -24 -8 -13 0 -18 -5 -15 -14 4 -10 1 -13 -9 -9
-7 3 -14 0 -14 -6 0 -6 -7 -11 -15 -11 -8 0 -15 -6 -15 -12 0 -9 -4 -8 -10 2
-8 13 -10 13 -10 -2 0 -18 -33 -42 -43 -32 -3 3 -8 -4 -12 -17 -6 -17 -9 -19
-16 -8 -7 11 -9 11 -9 -3 0 -12 -5 -15 -17 -11 -13 5 -15 2 -10 -11 5 -13 3
-17 -6 -13 -7 3 -19 -4 -25 -14 -7 -10 -19 -19 -28 -19 -9 0 -12 -5 -8 -12 5
-8 2 -9 -9 -5 -10 3 -17 2 -17 -4 0 -5 -11 -15 -25 -21 -14 -6 -25 -17 -25
-24 0 -7 -6 -11 -14 -8 -8 3 -20 -4 -28 -15 -8 -12 -18 -18 -21 -14 -4 3 -7 1
-7 -6 0 -7 -4 -9 -10 -6 -5 3 -10 -1 -10 -10 0 -9 -5 -13 -10 -10 -6 3 -13 -1
-16 -10 -4 -9 -13 -14 -20 -11 -9 3 -11 0 -7 -11 5 -12 2 -15 -10 -10 -11 4
-17 1 -17 -7 0 -12 -34 -30 -52 -27 -8 1 -12 -15 -9 -31 0 -5 -2 -7 -7 -5 -4
1 -8 -2 -9 -7 -1 -5 -7 -13 -15 -17 -10 -7 -9 -9 5 -9 9 0 34 -17 54 -37 20
-21 42 -37 50 -35 13 3 17 -8 14 -38 -1 -9 1 -11 6 -5 16 20 33 14 39 -12 7
-25 8 -25 15 -8 7 19 8 18 8 -2 1 -13 6 -23 12 -23 5 0 7 6 4 13 -4 6 0 4 8
-5 8 -10 18 -14 22 -10 5 4 5 1 1 -5 -4 -7 -2 -13 4 -13 6 0 8 -5 4 -11 -4 -8
1 -9 16 -4 15 5 20 3 16 -3 -3 -6 -2 -13 3 -17 5 -3 8 -14 6 -25 -2 -12 0 -18
5 -15 5 3 6 18 4 33 -5 26 -4 26 10 7 8 -11 12 -23 10 -27 -3 -4 3 -5 12 -1
12 4 15 3 10 -5 -4 -7 -2 -12 3 -12 6 0 13 0 16 0 3 0 16 -10 29 -21 13 -12
27 -21 30 -20 6 0 66 -58 66 -65 0 -3 -4 -3 -8 0 -5 3 -9 -1 -9 -9 0 -10 4
-12 12 -5 7 5 16 6 20 2 5 -4 5 -1 1 5 -4 8 -2 11 6 8 8 -3 14 -15 15 -25 1
-11 -2 -18 -6 -16 -4 3 -8 -1 -8 -8 0 -11 4 -12 18 -3 10 6 15 16 13 22 -3 5
1 2 9 -7 8 -10 19 -18 26 -18 6 0 14 -7 17 -15 4 -8 11 -12 17 -8 6 3 7 1 3
-5 -4 -7 -1 -12 6 -12 9 0 9 -3 -2 -10 -8 -5 -10 -10 -4 -10 5 0 15 5 20 10 8
8 15 6 24 -5 12 -14 11 -18 -1 -26 -10 -8 -8 -8 10 -4 18 5 22 4 16 -6 -6 -9
-3 -11 9 -6 14 6 17 3 12 -9 -5 -14 -4 -15 8 -5 13 11 15 9 11 -8 -3 -19 -1
-20 17 -10 18 10 20 9 14 -6 -5 -13 -2 -16 10 -11 11 4 15 2 11 -8 -4 -11 -1
-13 10 -9 12 5 15 2 10 -9 -4 -12 -1 -14 14 -11 13 4 19 0 21 -13 0 -11 2 -24
2 -31 1 -6 4 -15 8 -18 3 -4 5 5 4 19 -2 14 1 26 5 26 5 0 9 -4 9 -8 0 -5 11
-15 25 -22 14 -8 24 -18 22 -23 -3 -11 -22 -10 -22 2 0 5 -2 12 -5 15 -4 3 -6
-5 -6 -18 0 -23 10 -27 33 -13 16 10 43 -2 43 -19 0 -8 9 -14 20 -14 11 0 20
-5 20 -11 0 -5 5 -7 10 -4 13 8 8 -17 -5 -28 -5 -5 1 -5 14 -2 18 6 22 4 15
-6 -6 -11 -3 -10 12 1 10 8 16 10 12 6 -4 -5 0 -15 10 -23 10 -9 11 -11 2 -7
-13 7 -13 5 -1 -9 14 -18 26 -23 16 -8 -3 5 -1 12 4 15 5 3 11 -1 15 -9 3 -8
-3 -19 -12 -24 -22 -13 -6 -14 18 -1 13 7 21 7 26 -2 5 -7 3 -8 -6 -3 -8 5
-11 4 -6 -3 4 -6 12 -9 19 -6 7 2 17 -6 23 -18 6 -13 9 -17 7 -10 -4 18 14 15
21 -4 3 -8 11 -12 16 -9 6 4 10 3 9 -2 -1 -4 -1 -15 0 -23 1 -13 2 -13 11 0 8
12 10 10 10 -10 0 -20 2 -22 10 -10 6 10 10 11 10 3 0 -7 6 -13 13 -13 6 0 21
-8 32 -17 17 -13 17 -15 2 -9 -11 3 -16 2 -12 -4 3 -6 15 -10 25 -10 22 0 53
-28 44 -41 -3 -5 -9 -7 -14 -4 -5 3 -11 1 -14 -4 -7 -10 20 -9 30 2 4 4 14 7
23 7 14 0 14 -2 1 -10 -12 -8 -11 -10 6 -10 25 0 47 -23 36 -36 -4 -5 -3 -6 2
-2 5 4 16 2 24 -5 13 -10 15 -9 8 3 -4 9 -2 8 7 -2 8 -10 18 -14 23 -10 4 4 2
-2 -6 -13 -8 -11 -10 -17 -6 -13 5 4 15 0 23 -10 8 -9 12 -12 9 -6 -3 6 1 11
9 11 10 0 13 -9 11 -27 -2 -17 2 -27 10 -27 9 0 10 5 3 19 -12 22 -3 24 17 3
9 -8 13 -19 9 -24 -3 -5 0 -13 6 -17 8 -4 9 -3 5 4 -4 7 -2 12 3 12 6 0 11 -4
11 -10 0 -5 9 -10 21 -10 11 0 17 -4 14 -10 -3 -5 1 -10 10 -10 12 0 15 -6 10
-22 -5 -18 -4 -20 4 -8 9 12 12 13 20 1 7 -11 9 -11 14 0 4 10 6 9 6 -3 1 -9
-5 -19 -11 -22 -7 -3 2 -3 20 0 17 2 32 0 32 -5 0 -5 18 -22 40 -39 22 -16 37
-32 33 -35 -3 -4 4 -7 16 -7 12 0 19 -4 16 -10 -6 -9 8 -15 29 -11 5 1 6 -5 3
-13 -4 -9 -1 -18 5 -22 7 -4 8 -3 4 4 -13 22 7 12 32 -15 13 -16 21 -21 17
-13 -4 9 -1 9 8 -2 8 -10 19 -18 26 -18 15 0 14 -17 -1 -24 -7 -3 0 -2 16 1
20 4 27 2 22 -5 -4 -7 3 -14 19 -18 22 -5 24 -9 13 -23 -7 -9 -8 -13 -4 -9 5
4 16 2 24 -5 13 -10 14 -9 8 3 -4 8 4 3 17 -12 14 -15 28 -24 31 -21 3 4 6 -1
6 -10 0 -10 7 -17 16 -17 8 0 12 -4 9 -10 -3 -5 2 -10 12 -10 10 0 25 -5 33
-11 12 -9 11 -10 -8 -6 -12 3 -20 1 -16 -4 3 -5 12 -9 20 -9 8 0 13 -4 10 -9
-3 -4 7 -6 22 -4 19 3 23 2 13 -5 -7 -5 -10 -15 -6 -21 5 -9 10 -9 21 0 12 10
15 10 12 -2 -2 -8 3 -13 10 -11 8 1 11 -2 7 -8 -3 -5 -1 -10 5 -10 6 0 8 -5 4
-12 -5 -8 0 -9 14 -6 12 4 20 3 17 -1 -6 -11 50 -63 59 -54 4 4 4 0 0 -10 -4
-12 -1 -17 12 -17 9 0 14 -3 11 -6 -3 -4 7 -19 23 -34 21 -20 28 -34 24 -47
-6 -17 -6 -17 8 1 12 15 17 16 23 6 5 -9 4 -11 -3 -6 -7 4 -12 2 -12 -3 0 -6
7 -11 16 -11 9 0 18 -9 21 -20 3 -11 12 -20 20 -20 8 0 12 -4 9 -9 -4 -5 0
-12 6 -14 10 -4 9 -8 -2 -17 -13 -10 -12 -11 3 -6 21 7 47 -15 47 -39 0 -9 5
-13 10 -10 6 3 10 -2 10 -11 0 -10 3 -15 6 -11 10 9 32 -16 27 -31 -4 -8 0
-10 12 -6 15 6 16 4 5 -16 -7 -12 -8 -20 -2 -16 5 3 21 -3 33 -14 13 -11 18
-19 12 -20 -7 0 -13 -4 -13 -9 0 -5 9 -7 20 -4 12 3 20 0 20 -6 0 -7 -4 -9
-10 -6 -5 3 -10 2 -10 -2 0 -5 10 -13 23 -18 12 -6 21 -16 19 -23 -1 -7 6 -12
15 -13 15 0 15 -2 -2 -9 -19 -8 -19 -9 3 -9 20 -1 27 -11 23 -33 0 -5 9 -8 21
-8 17 0 19 -3 10 -12 -7 -7 -12 -17 -12 -22 0 -6 5 -4 10 4 6 10 10 11 10 3 0
-7 7 -13 15 -13 9 0 12 -6 8 -17 -4 -10 -2 -14 4 -10 6 4 16 -6 22 -21 6 -15
25 -38 41 -51 24 -19 28 -26 19 -38 -7 -7 -9 -16 -5 -20 3 -3 6 -1 6 5 0 7 5
12 12 12 6 0 8 -3 5 -6 -3 -4 7 -19 23 -34 17 -16 30 -35 30 -45 0 -9 5 -13
10 -10 6 3 10 -1 10 -9 0 -9 6 -16 13 -16 8 0 8 -3 -2 -9 -11 -7 -9 -10 10
-13 16 -2 23 -9 21 -21 -2 -10 3 -17 13 -17 9 0 13 -4 10 -10 -3 -5 -1 -10 5
-10 6 0 8 -4 5 -10 -3 -5 0 -10 7 -10 7 0 22 -13 33 -28 15 -21 15 -24 2 -13
-9 7 -17 11 -17 7 0 -3 15 -15 33 -26 17 -11 30 -22 29 -26 -4 -6 24 -48 53
-77 11 -11 15 -17 8 -13 -6 3 -15 1 -19 -5 -4 -8 -3 -9 4 -5 15 9 55 -31 46
-46 -4 -6 -3 -8 3 -5 6 4 17 -1 24 -10 8 -10 9 -14 2 -10 -6 4 -15 3 -18 -3
-4 -6 -3 -10 2 -9 19 3 33 -2 33 -12 0 -6 -7 -8 -17 -4 -14 5 -15 4 -6 -6 10
-10 16 -9 29 2 11 8 15 9 11 2 -5 -7 0 -17 12 -25 15 -9 17 -15 9 -25 -6 -8
-8 -16 -4 -20 3 -3 6 -1 6 5 0 7 5 12 10 12 6 0 10 -4 10 -10 0 -5 9 -19 21
-31 15 -15 18 -24 9 -34 -9 -11 -7 -12 9 -8 23 6 28 -6 10 -24 -8 -8 -8 -13 0
-18 6 -3 10 -3 9 2 -2 4 1 10 6 13 5 3 11 -6 13 -19 2 -14 6 -27 10 -30 3 -3
3 4 0 17 -3 12 -1 22 4 22 5 0 9 -12 9 -26 0 -14 4 -23 10 -19 9 6 14 -8 11
-28 -1 -5 2 -6 7 -3 8 5 47 -34 45 -44 -1 -3 4 -11 10 -19 9 -10 7 -16 -8 -27
-10 -8 -14 -14 -9 -14 6 0 15 5 21 11 14 14 36 1 29 -17 -3 -8 0 -13 7 -11 7
1 11 -4 10 -10 -2 -7 4 -13 12 -13 16 0 21 -15 8 -23 -5 -2 -2 -2 5 0 7 1 21
-11 30 -27 9 -16 21 -30 26 -30 5 0 3 -7 -4 -15 -7 -9 -10 -18 -6 -22 3 -3 6
-1 6 5 0 7 8 12 18 11 9 0 12 -3 5 -6 -8 -3 4 -20 29 -44 23 -21 37 -39 33
-39 -5 0 -1 -6 9 -13 10 -7 18 -27 18 -47 1 -19 3 -29 5 -22 3 6 12 12 21 12
13 0 14 -2 4 -9 -10 -6 -9 -10 7 -14 14 -3 19 -10 15 -21 -4 -12 -2 -15 9 -11
16 7 31 -20 20 -38 -4 -7 0 -8 12 -3 15 5 16 4 5 -9 -11 -13 -10 -14 3 -10 8
4 18 1 23 -6 4 -8 3 -10 -4 -5 -7 4 -12 5 -12 2 0 -3 12 -12 28 -20 23 -13 24
-15 7 -16 -16 -1 -15 -3 7 -11 14 -6 29 -17 32 -25 3 -9 1 -12 -4 -9 -6 3 -10
1 -10 -4 0 -6 9 -11 21 -11 11 0 17 -5 14 -10 -3 -6 -1 -10 6 -10 7 0 10 -3 6
-6 -8 -8 18 -34 34 -34 9 0 9 -3 0 -14 -10 -12 -8 -17 7 -25 11 -6 23 -7 27
-3 5 4 6 2 2 -3 -3 -6 1 -21 10 -35 8 -14 12 -17 9 -7 -3 11 -2 15 4 12 6 -3
10 -17 10 -31 0 -14 4 -22 10 -19 6 3 10 1 10 -5 0 -6 6 -8 13 -4 9 5 9 4 0
-6 -6 -7 -9 -19 -6 -27 5 -12 7 -12 14 -1 7 10 11 10 17 1 5 -8 11 -8 24 1 10
7 15 16 11 19 -3 4 -1 7 5 7 7 0 12 7 12 16 0 8 5 12 10 9 6 -4 7 -11 4 -17
-4 -7 -2 -8 4 -4 6 4 8 14 5 23 -5 12 -3 14 8 8 12 -7 12 -6 1 7 -11 14 -11
16 0 14 7 -1 20 -5 28 -10 11 -7 11 -4 -2 9 -15 17 -14 19 15 48 18 16 25 26
17 21 -13 -7 -13 -5 -1 9 16 20 36 23 25 4 -5 -8 -2 -8 9 2 18 14 22 23 9 18
-4 -1 -7 2 -7 8 0 5 3 9 8 8 4 -2 7 6 7 17 0 11 4 20 9 20 6 0 8 -9 6 -20 -2
-11 0 -18 4 -15 5 2 7 18 6 35 -1 16 1 27 6 24 9 -5 13 10 10 30 -1 5 6 3 15
-5 10 -8 15 -9 11 -3 -8 13 27 66 38 57 4 -5 5 0 2 10 -4 11 -3 16 3 12 6 -3
10 1 10 9 0 9 7 16 16 16 10 0 14 6 11 14 -3 8 1 17 9 20 10 4 13 2 8 -7 -5
-8 -2 -7 9 2 18 14 22 22 10 20 -20 -3 -23 2 -9 16 15 16 31 21 22 7 -2 -4 5
-9 17 -9 19 -2 19 0 5 8 -10 5 -14 17 -11 29 3 11 9 17 14 14 5 -3 9 0 9 6 0
7 7 10 18 6 14 -5 14 -4 -2 9 -17 13 -18 15 -3 15 9 0 16 6 14 13 -1 6 4 11
11 10 11 -3 16 9 13 30 0 4 6 7 14 7 8 0 14 6 12 13 -1 6 6 11 16 11 13 -2 15
1 7 11 -14 17 13 28 31 12 11 -10 11 -9 0 5 -10 14 -9 22 6 45 21 33 39 53 48
53 3 0 4 -4 0 -9 -3 -5 -1 -12 4 -16 6 -3 8 5 5 20 -3 19 0 25 13 25 14 0 15
2 5 9 -11 7 -11 9 2 14 9 4 16 13 16 22 0 8 5 15 11 15 5 0 7 -5 3 -12 -4 -7
-3 -8 5 -4 9 6 9 12 -1 24 -7 10 -8 14 -4 10 9 -8 43 31 39 44 -2 4 7 5 18 3
18 -4 19 -2 7 12 -11 15 -11 16 6 10 17 -7 17 -6 5 10 -12 15 -12 16 4 10 11
-4 17 -1 17 9 0 8 9 24 20 36 10 12 17 25 14 29 -3 5 1 7 8 4 8 -3 19 7 26 25
8 17 18 27 25 23 7 -4 8 0 4 11 -5 14 -3 16 12 11 11 -3 24 1 32 12 13 16 12
17 -4 4 -9 -8 -21 -11 -24 -7 -4 4 -1 11 6 15 8 5 10 14 6 21 -6 9 -3 9 14 1
18 -10 20 -9 14 5 -5 12 -3 15 6 9 10 -6 11 -3 1 15 -7 13 -8 20 -1 16 5 -4
15 3 21 14 6 11 18 20 26 20 8 0 12 5 9 10 -3 6 -2 10 4 10 6 0 7 8 4 18 -6
14 -4 15 9 4 13 -10 18 -10 24 -1 4 7 3 9 -4 5 -6 -4 -10 1 -9 13 1 11 6 17
14 14 8 -3 13 -2 12 3 -4 24 2 33 19 27 15 -6 15 -5 4 10 -12 14 -11 16 8 12
18 -3 20 -2 10 10 -10 12 -9 16 4 21 9 4 23 19 31 35 9 16 34 47 58 71 23 23
36 39 30 34 -9 -5 -11 -2 -7 8 3 9 11 14 17 13 7 -1 11 6 10 16 0 10 1 16 5
13 3 -3 11 2 18 12 7 9 18 17 26 17 7 0 12 8 10 18 -2 9 2 17 8 17 6 0 8 5 5
10 -3 6 2 13 12 17 36 12 44 24 31 42 -7 9 -9 13 -4 9 11 -9 39 19 31 32 -3 6
4 14 17 19 13 6 19 10 13 11 -5 0 -3 5 5 10 8 5 15 13 15 17 1 16 30 53 42 53
7 0 13 6 13 14 0 8 7 16 15 20 8 3 14 9 14 13 -4 15 13 43 22 37 5 -3 9 0 9 6
0 7 6 10 13 7 8 -3 14 1 14 8 0 8 -7 11 -16 8 -10 -4 -9 0 4 10 11 8 23 13 27
11 4 -3 5 2 2 10 -4 9 1 18 10 22 9 3 13 10 10 15 -3 5 2 10 10 10 29 3 34 4
42 11 3 4 -4 5 -17 3 -22 -4 -22 -3 -7 9 10 7 15 16 12 19 -3 3 4 10 15 17 12
6 21 15 21 21 0 6 -5 7 -12 3 -6 -4 -8 -3 -4 4 3 6 15 9 26 7 13 -3 17 1 13
11 -3 8 0 14 7 14 7 0 10 7 6 15 -3 8 -1 14 5 12 6 -1 19 13 28 30 10 18 21
30 25 26 3 -3 6 4 6 16 0 14 -4 20 -12 15 -7 -4 -8 -3 -4 4 12 19 16 53 5 47
-8 -6 -13 8 -10 28 0 4 -4 7 -11 7 -6 0 -8 3 -5 6 3 4 1 16 -5 28 -11 20 -17
41 -20 79 -1 9 -6 17 -10 17 -4 0 -8 7 -8 16 0 8 -5 12 -11 8 -8 -5 -8 -1 0
14 12 23 15 43 3 26 -4 -7 -16 6 -30 33 -13 25 -17 41 -11 37 7 -4 3 6 -9 23
-12 17 -22 39 -22 48 0 9 -4 13 -10 10 -14 -9 -12 8 3 24 6 8 7 11 1 8 -6 -4
-21 5 -34 20 -16 18 -18 24 -7 20 9 -3 19 -1 23 5 4 6 3 8 -3 5 -11 -7 -55 38
-46 47 4 3 1 6 -6 6 -8 0 -11 7 -7 15 3 10 -1 15 -12 15 -15 0 -15 2 -2 10 13
9 7 14 -12 11 -5 0 -8 8 -8 20 0 13 -4 18 -12 13 -7 -4 -10 -4 -6 1 4 4 -4 22
-17 40 -14 17 -25 37 -25 43 0 7 -4 12 -10 12 -5 0 -10 7 -10 15 0 8 -4 15
-10 15 -13 0 -51 76 -42 84 3 4 -1 4 -10 1 -11 -4 -21 1 -29 17 -7 13 -19 29
-28 36 -12 11 -13 12 -1 6 13 -7 13 -5 1 9 -7 9 -20 17 -28 17 -13 0 -13 2 -2
17 11 13 11 15 1 9 -15 -9 -52 20 -52 41 0 7 -7 13 -16 13 -8 0 -12 4 -9 10 3
6 1 10 -5 10 -6 0 -8 4 -5 10 3 6 -1 7 -9 4 -11 -4 -16 0 -16 10 0 9 -6 16
-14 16 -8 0 -18 9 -21 20 -3 11 -13 20 -21 20 -8 0 -13 4 -10 9 3 5 -6 12 -20
15 -15 4 -24 10 -21 13 4 3 -8 16 -26 28 -18 12 -31 27 -29 34 1 7 -2 10 -8 6
-14 -8 -91 55 -83 69 4 7 1 6 -7 -1 -10 -9 -16 -9 -26 0 -34 30 -45 38 -69 47
-15 6 -24 14 -20 19 3 6 -4 8 -16 6 -15 -3 -19 0 -15 10 3 10 0 12 -11 8 -10
-4 -14 -2 -10 4 4 6 -3 10 -16 9 -12 0 -21 4 -20 11 2 7 -6 10 -17 8 -11 -2
-20 1 -20 6 0 6 -4 7 -10 4 -5 -3 -10 -1 -10 5 0 7 -7 10 -15 6 -8 -3 -14 0
-12 7 1 7 -9 12 -25 11 -17 0 -28 5 -28 13 0 7 -5 13 -11 13 -5 0 -7 -6 -3
-12 4 -7 -2 -5 -13 5 -11 9 -23 14 -26 10 -4 -3 -7 -1 -7 6 0 7 -7 11 -15 8
-8 -4 -17 -2 -20 4 -4 5 -11 7 -16 4 -5 -4 -9 0 -9 7 0 9 -3 9 -10 -2 -8 -13
-10 -12 -10 3 0 10 -4 15 -10 12 -5 -3 -10 0 -10 7 0 10 -2 10 -9 -1 -6 -9
-11 -10 -15 -3 -4 6 -13 9 -20 6 -7 -3 -19 2 -26 11 -10 12 -16 13 -26 4 -8
-6 -14 -7 -14 -2 0 7 -22 13 -67 16 -7 0 -13 5 -13 10 0 5 -6 4 -13 -2 -17
-14 -28 -4 -19 17 5 15 4 15 -11 0 -18 -18 -47 -14 -47 6 0 6 -5 4 -10 -4 -7
-12 -12 -12 -22 -2 -6 6 -17 12 -23 12 -5 0 -4 -4 4 -9 10 -7 7 -9 -12 -8 -30
2 -33 7 -14 27 8 10 6 10 -8 -1 -11 -8 -31 -14 -45 -12 -14 2 -35 4 -48 3 -15
0 -21 4 -16 12 5 7 3 8 -7 3 -18 -12 -79 -13 -86 -2 -2 4 -11 3 -19 -4 -8 -6
-14 -7 -14 -2 0 5 -18 9 -39 9 -24 0 -37 -4 -34 -9 4 -6 1 -7 -8 -1 -20 12
-61 12 -78 0 -10 -8 -13 -8 -9 -1 4 7 -8 11 -32 11 -23 0 -36 -4 -33 -9 4 -6
1 -7 -8 -1 -19 12 -38 14 -44 4 -2 -4 -16 -6 -30 -4 -14 2 -36 6 -50 8 -14 2
-28 -1 -31 -5 -3 -5 -16 -7 -30 -5 -14 3 -24 0 -24 -7 0 -7 -4 -6 -10 3 -9 13
-11 13 -20 0 -9 -13 -10 -13 -10 0 0 9 -3 11 -8 5 -4 -6 -17 -10 -30 -9 -12 1
-25 -3 -28 -8 -3 -5 -12 -4 -20 3 -8 6 -14 7 -14 2 0 -6 -11 -9 -25 -8 -14 2
-25 -1 -25 -7 0 -6 -6 -5 -15 2 -9 7 -15 8 -15 2 0 -5 -9 -8 -21 -5 -12 4 -25
0 -31 -8 -8 -11 -11 -11 -15 -1 -4 10 -8 10 -21 0 -13 -11 -14 -11 -7 2 7 13
6 13 -7 2 -8 -7 -23 -10 -32 -6 -9 3 -16 1 -16 -5 0 -6 -5 -11 -11 -11 -5 0
-7 6 -3 13 4 6 -1 4 -12 -5 -14 -13 -23 -14 -38 -6 -14 8 -17 8 -11 -2 5 -8 1
-11 -11 -9 -11 2 -25 0 -31 -4 -7 -5 -13 -5 -13 -1 0 3 -7 1 -15 -6 -8 -7 -15
-8 -15 -3 0 5 -7 10 -15 10 -8 0 -11 -5 -8 -10 4 -6 -3 -8 -15 -5 -12 4 -22 2
-22 -3 0 -5 -5 -9 -11 -9 -5 0 -7 6 -3 13 4 6 -3 3 -16 -8 -14 -12 -20 -14
-15 -5 8 13 7 13 -8 1 -10 -8 -20 -11 -24 -8 -3 4 -12 2 -19 -4 -8 -6 -20 -9
-27 -6 -7 3 -21 -1 -31 -9 -17 -12 -21 -11 -33 4 -10 14 -12 14 -8 1 6 -15 -2
-18 -47 -20 -10 0 -18 -5 -18 -11 0 -6 -7 -5 -17 3 -9 8 -14 9 -10 3 4 -7 0
-15 -9 -18 -10 -4 -13 -2 -8 7 6 8 3 8 -9 -1 -9 -8 -21 -11 -27 -7 -5 3 -10 1
-10 -6 0 -7 -3 -9 -7 -6 -3 4 -13 1 -21 -6 -13 -10 -14 -9 -7 2 6 11 5 12 -6
5 -24 -15 -38 -13 -32 4 4 10 2 13 -5 8 -7 -4 -12 -1 -12 9 0 9 -3 14 -7 12
-5 -3 -17 7 -28 22 -19 26 -19 26 0 12 11 -8 8 -2 -8 13 -15 15 -24 32 -21 38
4 7 2 8 -4 4 -7 -4 -12 -1 -12 9 0 9 -4 13 -10 10 -5 -3 -10 1 -10 9 0 9 -4
16 -10 16 -5 0 -9 3 -9 8 3 19 -2 33 -11 27 -5 -3 -10 1 -10 10 0 10 -5 13
-12 9 -7 -5 -9 -2 -5 9 3 9 0 18 -9 21 -8 3 -14 13 -14 23 0 15 -2 16 -10 3
-8 -12 -10 -10 -10 8 0 15 -4 21 -12 16 -6 -4 -8 -3 -5 3 9 14 -29 57 -42 48
-7 -3 -8 0 -5 9 4 10 -6 28 -27 48 -19 17 -28 28 -20 23 10 -5 12 -4 7 3 -4 7
-14 12 -22 12 -8 0 -14 7 -14 16 0 8 -4 12 -10 9 -9 -6 -15 8 -11 29 1 5 -5 3
-14 -4 -9 -7 -15 -9 -14 -4 6 18 -13 54 -27 54 -8 0 -12 5 -9 10 3 6 0 10 -8
10 -7 0 -23 14 -35 30 -13 17 -28 30 -35 30 -8 0 -23 11 -35 25 -12 14 -28 25
-34 25 -9 0 -8 4 2 11 12 9 10 10 -8 6 -13 -3 -21 -3 -18 0 6 6 -18 33 -30 33
-3 0 -14 8 -23 18 -9 9 -28 23 -43 30 -16 6 -28 16 -28 22 0 5 -7 10 -15 10
-8 0 -15 5 -15 11 0 5 -5 7 -10 4 -6 -3 -13 1 -16 9 -3 9 -13 16 -21 16 -8 0
-11 4 -8 10 3 5 0 7 -8 4 -8 -3 -21 2 -30 10 -9 9 -20 16 -26 16 -6 0 -11 5
-11 11 0 5 -4 7 -10 4 -5 -3 -10 -1 -10 5 0 6 -4 8 -10 5 -5 -3 -10 -1 -10 5
0 6 -4 8 -10 5 -5 -3 -10 -1 -10 5 0 6 -8 10 -17 8 -10 -2 -17 2 -16 9 2 7 -4
10 -12 7 -8 -4 -15 -1 -15 5 0 6 -5 11 -12 11 -6 0 -20 8 -31 18 -20 16 -20
16 -13 -3 6 -17 4 -17 -18 4 -17 16 -26 20 -26 11 0 -9 -4 -8 -13 5 -8 10 -19
15 -25 11 -7 -4 -12 -3 -12 1 0 5 -8 9 -17 10 -27 2 -46 8 -62 17 -10 7 -12 6
-6 -4 6 -10 4 -11 -6 -4 -22 13 -51 16 -43 3 3 -6 -5 -3 -20 6 -25 17 -26 16
-26 -1 0 -11 -3 -15 -8 -8 -10 14 -42 26 -42 14 0 -5 -13 -5 -30 0 -20 6 -30
5 -30 -2 0 -6 -3 -8 -7 -5 -3 4 -13 1 -21 -6 -13 -10 -15 -9 -9 6 8 21 3 22
-13 2z m1011 -442 c13 -16 12 -17 -3 -4 -10 7 -18 15 -18 17 0 8 8 3 21 -13z
m3509 -2627 c0 -3 -4 -8 -10 -11 -5 -3 -10 -1 -10 4 0 6 5 11 10 11 6 0 10 -2
10 -4z"/>
<path d="M3556 5108 c3 -4 11 -5 19 -1 21 7 19 12 -4 10 -11 0 -18 -5 -15 -9z"/>
<path d="M3635 5090 c-3 -5 -1 -10 4 -10 6 0 11 5 11 10 0 6 -2 10 -4 10 -3 0
-8 -4 -11 -10z"/>
<path d="M3733 5059 c-2 -23 3 -25 10 -4 4 8 3 16 -1 19 -4 3 -9 -4 -9 -15z"/>
<path d="M3836 5041 c-3 -5 1 -11 9 -14 9 -4 12 -1 8 9 -6 16 -10 17 -17 5z"/>
<path d="M3823 5012 c10 -10 14 -22 10 -27 -5 -4 -2 -5 5 -1 11 6 10 12 -4 27
-9 10 -19 19 -22 19 -3 0 2 -8 11 -18z"/>
<path d="M3876 5022 c-3 -5 1 -9 9 -9 8 0 12 4 9 9 -3 4 -7 8 -9 8 -2 0 -6 -4
-9 -8z"/>
<path d="M5950 5019 c0 -5 5 -7 10 -4 6 3 10 8 10 11 0 2 -4 4 -10 4 -5 0 -10
-5 -10 -11z"/>
<path d="M5890 5012 c0 -5 7 -9 15 -9 8 0 12 4 9 9 -3 4 -9 8 -15 8 -5 0 -9
-4 -9 -8z"/>
<path d="M6070 5006 c7 -7 13 -7 20 0 6 6 3 10 -10 10 -13 0 -16 -4 -10 -10z"/>
<path d="M6110 5016 c0 -2 7 -7 16 -10 8 -3 12 -2 9 4 -6 10 -25 14 -25 6z"/>
<path d="M3870 4986 c7 -7 13 -7 20 0 6 6 3 10 -10 10 -13 0 -16 -4 -10 -10z"/>
<path d="M5696 4977 c3 -10 9 -15 12 -12 3 3 0 11 -7 18 -10 9 -11 8 -5 -6z"/>
<path d="M3786 4972 c-3 -5 1 -9 9 -9 8 0 15 4 15 9 0 4 -4 8 -9 8 -6 0 -12
-4 -15 -8z"/>
<path d="M3905 4970 c-3 -6 1 -7 9 -4 18 7 21 14 7 14 -6 0 -13 -4 -16 -10z"/>
<path d="M5650 4971 c0 -6 4 -13 10 -16 6 -3 7 1 4 9 -7 18 -14 21 -14 7z"/>
<path d="M5733 4966 c-3 -6 -3 -8 2 -4 4 4 13 3 20 -2 8 -7 12 -5 12 3 0 16
-25 18 -34 3z"/>
<path d="M3935 4961 c-3 -5 -2 -12 3 -15 5 -3 9 1 9 9 0 17 -3 19 -12 6z"/>
<path d="M5617 4953 c-9 -8 12 -33 27 -33 6 0 3 5 -7 11 -9 6 -15 14 -12 20 7
10 2 12 -8 2z"/>
<path d="M5810 4949 c0 -5 5 -7 10 -4 6 3 10 8 10 11 0 2 -4 4 -10 4 -5 0 -10
-5 -10 -11z"/>
<path d="M5855 4950 c3 -5 8 -10 11 -10 2 0 4 5 4 10 0 6 -5 10 -11 10 -5 0
-7 -4 -4 -10z"/>
<path d="M5477 4943 c-10 -9 -9 -33 1 -33 4 0 8 9 8 20 0 23 0 22 -9 13z"/>
<path d="M4146 4929 c3 -5 9 -7 14 -4 4 3 11 0 13 -5 3 -6 4 -5 3 1 -1 7 -10
13 -19 15 -9 1 -15 -2 -11 -7z"/>
<path d="M5508 4933 c10 -4 10 -8 0 -21 -12 -15 -11 -16 4 -3 19 14 15 32 -5
30 -8 0 -8 -2 1 -6z"/>
<path d="M5575 4931 c-3 -5 -2 -12 3 -15 5 -3 9 1 9 9 0 17 -3 19 -12 6z"/>
<path d="M4016 4917 c3 -10 9 -15 12 -12 3 3 0 11 -7 18 -10 9 -11 8 -5 -6z"/>
<path d="M4197 4919 c7 -7 15 -10 18 -7 3 3 -2 9 -12 12 -14 6 -15 5 -6 -5z"/>
<path d="M4110 4906 c7 -7 13 -7 20 0 6 6 3 10 -10 10 -13 0 -16 -4 -10 -10z"/>
<path d="M4351 4902 c-7 -13 -6 -19 2 -19 7 0 13 9 13 19 0 10 -1 18 -3 18 -1
0 -7 -8 -12 -18z"/>
<path d="M4426 4897 c3 -10 9 -15 12 -12 3 3 0 11 -7 18 -10 9 -11 8 -5 -6z"/>
<path d="M5180 4900 c-12 -7 -12 -11 -2 -20 6 -5 10 -7 7 -4 -3 4 0 13 6 21
13 15 10 16 -11 3z"/>
<path d="M4464 4884 c-18 -14 -18 -15 4 -4 12 6 22 13 22 15 0 8 -5 6 -26 -11z"/>
<path d="M5070 4876 c-12 -19 -12 -20 3 -8 9 8 20 11 25 8 5 -3 9 1 9 8 0 20
-23 15 -37 -8z"/>
<path d="M5270 4896 c0 -2 7 -7 16 -10 8 -3 12 -2 9 4 -6 10 -25 14 -25 6z"/>
<path d="M5355 4890 c3 -5 8 -10 11 -10 2 0 4 5 4 10 0 6 -5 10 -11 10 -5 0
-7 -4 -4 -10z"/>
<path d="M4636 4877 c3 -10 9 -15 12 -12 3 3 0 11 -7 18 -10 9 -11 8 -5 -6z"/>
<path d="M4796 4877 c3 -10 9 -15 12 -12 3 3 0 11 -7 18 -10 9 -11 8 -5 -6z"/>
<path d="M4826 4878 c3 -5 10 -6 15 -3 13 9 11 12 -6 12 -8 0 -12 -4 -9 -9z"/>
<path d="M4215 4870 c3 -5 8 -10 11 -10 2 0 4 5 4 10 0 6 -5 10 -11 10 -5 0
-7 -4 -4 -10z"/>
<path d="M4390 4868 c0 -4 4 -8 9 -8 6 0 12 4 15 8 3 5 -1 9 -9 9 -8 0 -15 -4
-15 -9z"/>
<path d="M4481 4866 c-9 -11 -9 -16 1 -22 7 -4 10 -4 6 1 -4 4 -3 14 3 22 6 7
9 13 6 13 -2 0 -10 -6 -16 -14z"/>
<path d="M4614 4872 c3 -6 -2 -15 -11 -21 -10 -6 -13 -11 -7 -11 20 0 37 27
23 36 -7 4 -9 3 -5 -4z"/>
<path d="M4894 4872 c10 -17 -13 -25 -32 -11 -15 12 -15 11 1 -6 16 -18 18
-18 33 -3 12 12 13 17 3 23 -7 5 -10 4 -5 -3z"/>
<path d="M5151 4863 c7 -12 15 -20 18 -17 3 2 -3 12 -13 22 -17 16 -18 16 -5
-5z"/>
<path d="M719 4843 c-13 -16 -12 -17 4 -4 9 7 17 15 17 17 0 8 -8 3 -21 -13z"/>
<path d="M4507 4849 c7 -7 15 -10 18 -7 3 3 -2 9 -12 12 -14 6 -15 5 -6 -5z"/>
<path d="M4676 4843 c-6 -14 -5 -15 5 -6 7 7 10 15 7 18 -3 3 -9 -2 -12 -12z"/>
<path d="M4833 4845 c0 -8 4 -12 9 -9 5 3 6 10 3 15 -9 13 -12 11 -12 -6z"/>
<path d="M5191 4843 c7 -12 15 -20 18 -17 3 2 -3 12 -13 22 -17 16 -18 16 -5
-5z"/>
<path d="M5410 4851 c0 -6 4 -13 10 -16 6 -3 7 1 4 9 -7 18 -14 21 -14 7z"/>
<path d="M5270 4829 c0 -5 5 -7 10 -4 6 3 10 8 10 11 0 2 -4 4 -10 4 -5 0 -10
-5 -10 -11z"/>
<path d="M4876 4817 c3 -10 9 -15 12 -12 3 3 0 11 -7 18 -10 9 -11 8 -5 -6z"/>
<path d="M4495 4811 c-3 -5 -2 -12 3 -15 5 -3 9 1 9 9 0 17 -3 19 -12 6z"/>
<path d="M4630 4809 c0 -5 5 -7 10 -4 6 3 10 8 10 11 0 2 -4 4 -10 4 -5 0 -10
-5 -10 -11z"/>
<path d="M8329 4454 c-13 -14 -24 -29 -24 -32 0 -4 -3 -6 -6 -5 -3 1 -6 -5 -6
-13 0 -11 4 -11 19 3 10 9 16 18 13 21 -9 9 27 42 38 35 6 -3 7 -1 3 5 -9 16
-9 16 -37 -14z"/>
<path d="M8375 4441 c-3 -5 -2 -12 3 -15 5 -3 9 1 9 9 0 17 -3 19 -12 6z"/>
<path d="M8333 4385 c0 -8 4 -12 9 -9 5 3 6 10 3 15 -9 13 -12 11 -12 -6z"/>
<path d="M573 4361 c0 -11 5 -18 9 -15 4 3 5 11 1 19 -7 21 -12 19 -10 -4z"/>
<path d="M8235 4370 c-3 -6 1 -7 9 -4 18 7 21 14 7 14 -6 0 -13 -4 -16 -10z"/>
<path d="M635 4310 c-3 -5 -1 -10 4 -10 6 0 11 5 11 10 0 6 -2 10 -4 10 -3 0
-8 -4 -11 -10z"/>
<path d="M8160 4310 c-9 -6 -10 -10 -3 -10 6 0 15 5 18 10 8 12 4 12 -15 0z"/>
<path d="M4050 4296 c0 -2 8 -10 18 -17 15 -13 16 -12 3 4 -13 16 -21 21 -21
13z"/>
<path d="M8153 4275 c0 -8 4 -15 9 -15 4 0 8 4 8 9 0 6 -4 12 -8 15 -5 3 -9
-1 -9 -9z"/>
<path d="M625 4270 c-3 -6 1 -7 9 -4 18 7 21 14 7 14 -6 0 -13 -4 -16 -10z"/>
<path d="M8113 4275 c4 -5 0 -16 -9 -26 -12 -14 -13 -18 -2 -25 7 -4 10 -3 5
1 -4 5 0 16 9 26 12 14 13 18 2 25 -7 4 -10 3 -5 -1z"/>
<path d="M8027 4209 c7 -7 15 -10 18 -7 3 3 -2 9 -12 12 -14 6 -15 5 -6 -5z"/>
<path d="M813 4195 c0 -8 4 -15 9 -15 4 0 8 4 8 9 0 6 -4 12 -8 15 -5 3 -9 -1
-9 -9z"/>
<path d="M839 4162 c-13 -15 -12 -16 3 -4 13 10 17 10 21 0 4 -9 6 -9 6 -1 2
20 -16 24 -30 5z"/>
<path d="M773 4155 c0 -8 4 -12 9 -9 5 3 6 10 3 15 -9 13 -12 11 -12 -6z"/>
<path d="M988 4063 c7 -3 16 -2 19 1 4 3 -2 6 -13 5 -11 0 -14 -3 -6 -6z"/>
<path d="M937 4045 c-4 -8 -3 -16 1 -19 4 -3 9 4 9 15 2 23 -3 25 -10 4z"/>
<path d="M990 4026 c7 -7 13 -7 20 0 6 6 3 10 -10 10 -13 0 -16 -4 -10 -10z"/>
<path d="M975 4001 c-3 -5 -2 -12 3 -15 5 -3 9 1 9 9 0 17 -3 19 -12 6z"/>
<path d="M1115 3920 c-4 -6 -11 -7 -17 -4 -7 4 -8 2 -4 -5 6 -9 11 -9 22 0 14
11 18 19 10 19 -3 0 -8 -5 -11 -10z"/>
<path d="M1190 3829 c0 -5 5 -7 10 -4 6 3 10 8 10 11 0 2 -4 4 -10 4 -5 0 -10
-5 -10 -11z"/>
<path d="M1320 3790 c-9 -6 -10 -10 -3 -10 6 0 15 5 18 10 8 12 4 12 -15 0z"/>
<path d="M1296 3752 c-3 -5 1 -9 9 -9 8 0 12 4 9 9 -3 4 -7 8 -9 8 -2 0 -6 -4
-9 -8z"/>
<path d="M1390 3669 c0 -5 5 -7 10 -4 6 3 10 8 10 11 0 2 -4 4 -10 4 -5 0 -10
-5 -10 -11z"/>
<path d="M1530 3589 c0 -5 5 -7 10 -4 6 3 10 8 10 11 0 2 -4 4 -10 4 -5 0 -10
-5 -10 -11z"/>
<path d="M1590 3569 c0 -5 5 -7 10 -4 6 3 10 8 10 11 0 2 -4 4 -10 4 -5 0 -10
-5 -10 -11z"/>
<path d="M1610 3516 c0 -2 7 -7 16 -10 8 -3 12 -2 9 4 -6 10 -25 14 -25 6z"/>
<path d="M1655 3510 c3 -5 8 -10 11 -10 2 0 4 5 4 10 0 6 -5 10 -11 10 -5 0
-7 -4 -4 -10z"/>
<path d="M1737 3499 c7 -7 15 -10 18 -7 3 3 -2 9 -12 12 -14 6 -15 5 -6 -5z"/>
<path d="M1785 3430 c-3 -6 1 -7 9 -4 18 7 21 14 7 14 -6 0 -13 -4 -16 -10z"/>
<path d="M1710 3411 c0 -6 4 -13 10 -16 6 -3 7 1 4 9 -7 18 -14 21 -14 7z"/>
<path d="M1855 3330 c-3 -5 -1 -10 4 -10 6 0 11 5 11 10 0 6 -2 10 -4 10 -3 0
-8 -4 -11 -10z"/>
<path d="M2026 3248 c3 -4 9 -8 15 -8 5 0 9 4 9 8 0 5 -7 9 -15 9 -8 0 -12 -4
-9 -9z"/>
<path d="M2000 3210 c8 -5 20 -10 25 -10 6 0 3 5 -5 10 -8 5 -19 10 -25 10 -5
0 -3 -5 5 -10z"/>
<path d="M2046 3208 c3 -5 10 -6 15 -3 13 9 11 12 -6 12 -8 0 -12 -4 -9 -9z"/>
<path d="M2130 3210 c0 -5 5 -10 11 -10 5 0 7 5 4 10 -3 6 -8 10 -11 10 -2 0
-4 -4 -4 -10z"/>
<path d="M2080 3170 c-9 -6 -10 -10 -3 -10 6 0 15 5 18 10 8 12 4 12 -15 0z"/>
<path d="M2186 3167 c3 -10 9 -15 12 -12 3 3 0 11 -7 18 -10 9 -11 8 -5 -6z"/>
<path d="M2150 3156 c0 -2 7 -7 16 -10 8 -3 12 -2 9 4 -6 10 -25 14 -25 6z"/>
<path d="M2195 3131 c-3 -5 -2 -12 3 -15 5 -3 9 1 9 9 0 17 -3 19 -12 6z"/>
<path d="M2215 3070 c3 -5 8 -10 11 -10 2 0 4 5 4 10 0 6 -5 10 -11 10 -5 0
-7 -4 -4 -10z"/>
<path d="M6230 3049 c0 -5 5 -7 10 -4 6 3 10 8 10 11 0 2 -4 4 -10 4 -5 0 -10
-5 -10 -11z"/>
<path d="M2253 3035 c0 -8 4 -12 9 -9 5 3 6 10 3 15 -9 13 -12 11 -12 -6z"/>
<path d="M2270 2995 c0 -7 30 -13 34 -7 3 4 -4 9 -15 9 -10 1 -19 0 -19 -2z"/>
<path d="M2380 2996 c0 -2 8 -10 18 -17 15 -13 16 -12 3 4 -13 16 -21 21 -21
13z"/>
<path d="M6230 2986 c0 -2 8 -10 18 -17 15 -13 16 -12 3 4 -13 16 -21 21 -21
13z"/>
<path d="M2396 2948 c3 -5 10 -6 15 -3 13 9 11 12 -6 12 -8 0 -12 -4 -9 -9z"/>
<path d="M2456 2928 c3 -5 10 -6 15 -3 13 9 11 12 -6 12 -8 0 -12 -4 -9 -9z"/>
<path d="M2410 2909 c0 -5 5 -7 10 -4 6 3 10 8 10 11 0 2 -4 4 -10 4 -5 0 -10
-5 -10 -11z"/>
<path d="M2456 2872 c-3 -5 1 -9 9 -9 8 0 12 4 9 9 -3 4 -7 8 -9 8 -2 0 -6 -4
-9 -8z"/>
<path d="M2515 2870 c3 -5 8 -10 11 -10 2 0 4 5 4 10 0 6 -5 10 -11 10 -5 0
-7 -4 -4 -10z"/>
<path d="M2560 2810 c-9 -6 -10 -10 -3 -10 6 0 15 5 18 10 8 12 4 12 -15 0z"/>
<path d="M2590 2811 c0 -6 4 -13 10 -16 6 -3 7 1 4 9 -7 18 -14 21 -14 7z"/>
<path d="M2650 2771 c0 -6 4 -12 8 -15 5 -3 9 1 9 9 0 8 -4 15 -9 15 -4 0 -8
-4 -8 -9z"/>
<path d="M2693 2735 c0 -7 5 -13 11 -12 6 1 10 -3 9 -8 -1 -6 9 -11 22 -11 24
0 25 11 2 11 -7 1 -10 7 -9 15 2 8 0 12 -4 8 -4 -4 -12 -3 -19 2 -8 7 -12 5
-12 -5z"/>
<path d="M2815 2619 c-4 -6 -5 -12 -2 -15 2 -3 7 2 10 11 7 17 1 20 -8 4z"/>
<path d="M2799 2563 c-13 -16 -12 -17 4 -4 16 13 21 21 13 21 -2 0 -10 -8 -17
-17z"/>
<path d="M2878 2563 c7 -3 16 -2 19 1 4 3 -2 6 -13 5 -11 0 -14 -3 -6 -6z"/>
<path d="M2958 2463 c7 -3 16 -2 19 1 4 3 -2 6 -13 5 -11 0 -14 -3 -6 -6z"/>
<path d="M2996 2308 c3 -4 11 -5 19 -1 21 7 19 12 -4 10 -11 0 -18 -5 -15 -9z"/>
<path d="M3036 2292 c-3 -5 1 -9 9 -9 8 0 12 4 9 9 -3 4 -7 8 -9 8 -2 0 -6 -4
-9 -8z"/>
<path d="M6085 2291 c-3 -5 -2 -12 3 -15 5 -3 9 1 9 9 0 17 -3 19 -12 6z"/>
<path d="M6120 2270 c-12 -7 -10 -9 7 -7 12 0 19 5 17 9 -6 10 -6 10 -24 -2z"/>
<path d="M3074 2203 c16 -20 36 -23 36 -6 0 4 -3 3 -7 0 -3 -4 -16 1 -27 10
-21 18 -21 18 -2 -4z"/>
<path d="M6030 2216 c0 -2 7 -7 16 -10 8 -3 12 -2 9 4 -6 10 -25 14 -25 6z"/>
<path d="M3135 2190 c3 -5 8 -10 11 -10 2 0 4 5 4 10 0 6 -5 10 -11 10 -5 0
-7 -4 -4 -10z"/>
<path d="M6005 2190 c-3 -6 1 -7 9 -4 18 7 21 14 7 14 -6 0 -13 -4 -16 -10z"/>
<path d="M6055 2151 c-3 -5 -2 -12 3 -15 5 -3 9 1 9 9 0 17 -3 19 -12 6z"/>
<path d="M3256 2083 c-6 -14 -5 -15 5 -6 7 7 10 15 7 18 -3 3 -9 -2 -12 -12z"/>
<path d="M6006 2092 c-3 -5 1 -9 9 -9 8 0 12 4 9 9 -3 4 -7 8 -9 8 -2 0 -6 -4
-9 -8z"/>
<path d="M5996 2048 c3 -5 10 -6 15 -3 13 9 11 12 -6 12 -8 0 -12 -4 -9 -9z"/>
<path d="M5930 2029 c0 -5 5 -7 10 -4 6 3 10 8 10 11 0 2 -4 4 -10 4 -5 0 -10
-5 -10 -11z"/>
<path d="M3310 2026 c0 -2 7 -7 16 -10 8 -3 12 -2 9 4 -6 10 -25 14 -25 6z"/>
<path d="M5894 2010 c0 -13 4 -16 10 -10 7 7 7 13 0 20 -6 6 -10 3 -10 -10z"/>
<path d="M5980 2016 c0 -2 8 -10 18 -17 15 -13 16 -12 3 4 -13 16 -21 21 -21
13z"/>
<path d="M5899 1978 c-5 -18 -6 -38 -1 -34 7 8 12 36 6 36 -2 0 -4 -1 -5 -2z"/>
<path d="M3299 1958 c-5 -18 -6 -38 -1 -34 7 8 12 36 6 36 -2 0 -4 -1 -5 -2z"/>
<path d="M3373 1937 c0 -8 6 -14 14 -14 9 0 10 4 2 14 -6 7 -12 13 -14 13 -1
0 -2 -6 -2 -13z"/>
<path d="M5815 1890 c3 -5 8 -10 11 -10 2 0 4 5 4 10 0 6 -5 10 -11 10 -5 0
-7 -4 -4 -10z"/>
<path d="M3396 1868 c3 -5 10 -6 15 -3 13 9 11 12 -6 12 -8 0 -12 -4 -9 -9z"/>
<path d="M3455 1840 c-4 -6 -11 -7 -17 -4 -7 4 -8 2 -4 -5 6 -9 11 -9 22 0 14
11 18 19 10 19 -3 0 -8 -5 -11 -10z"/>
<path d="M3415 1810 c-3 -5 -1 -10 4 -10 6 0 11 5 11 10 0 6 -2 10 -4 10 -3 0
-8 -4 -11 -10z"/>
<path d="M5773 1785 c0 -8 4 -12 9 -9 5 3 6 10 3 15 -9 13 -12 11 -12 -6z"/>
<path d="M3466 1768 c3 -4 9 -8 15 -8 5 0 9 4 9 8 0 5 -7 9 -15 9 -8 0 -12 -4
-9 -9z"/>
<path d="M5710 1755 c0 -7 30 -13 34 -7 3 4 -4 9 -15 9 -10 1 -19 0 -19 -2z"/>
<path d="M3516 1703 c-6 -14 -5 -15 5 -6 7 7 10 15 7 18 -3 3 -9 -2 -12 -12z"/>
<path d="M3547 1649 c7 -7 15 -10 18 -7 3 3 -2 9 -12 12 -14 6 -15 5 -6 -5z"/>
<path d="M3587 1649 c7 -7 15 -10 18 -7 3 3 -2 9 -12 12 -14 6 -15 5 -6 -5z"/>
<path d="M5630 1609 c0 -5 5 -7 10 -4 6 3 10 8 10 11 0 2 -4 4 -10 4 -5 0 -10
-5 -10 -11z"/>
<path d="M3576 1592 c-3 -5 1 -9 9 -9 8 0 12 4 9 9 -3 4 -7 8 -9 8 -2 0 -6 -4
-9 -8z"/>
<path d="M5616 1572 c-3 -5 1 -9 9 -9 8 0 12 4 9 9 -3 4 -7 8 -9 8 -2 0 -6 -4
-9 -8z"/>
<path d="M3613 1545 c0 -8 4 -12 9 -9 5 3 6 10 3 15 -9 13 -12 11 -12 -6z"/>
<path d="M5535 1510 c3 -5 8 -10 11 -10 2 0 4 5 4 10 0 6 -5 10 -11 10 -5 0
-7 -4 -4 -10z"/>
<path d="M3645 1470 c-3 -6 1 -7 9 -4 18 7 21 14 7 14 -6 0 -13 -4 -16 -10z"/>
<path d="M5509 1453 c-13 -16 -12 -17 4 -4 16 13 21 21 13 21 -2 0 -10 -8 -17
-17z"/>
<path d="M3690 1455 c0 -5 5 -17 10 -25 5 -8 10 -10 10 -5 0 6 -5 17 -10 25
-5 8 -10 11 -10 5z"/>
<path d="M3720 1455 c0 -2 6 -8 13 -14 10 -8 14 -7 14 2 0 8 -6 14 -14 14 -7
0 -13 -1 -13 -2z"/>
<path d="M5467 1409 c7 -7 15 -10 18 -7 3 3 -2 9 -12 12 -14 6 -15 5 -6 -5z"/>
<path d="M3730 1389 c0 -5 5 -7 10 -4 6 3 10 8 10 11 0 2 -4 4 -10 4 -5 0 -10
-5 -10 -11z"/>
<path d="M5413 1355 c0 -8 4 -12 9 -9 5 3 6 10 3 15 -9 13 -12 11 -12 -6z"/>
<path d="M3770 1349 c0 -5 5 -7 10 -4 6 3 10 8 10 11 0 2 -4 4 -10 4 -5 0 -10
-5 -10 -11z"/>
<path d="M5516 1352 c-3 -5 1 -9 9 -9 8 0 12 4 9 9 -3 4 -7 8 -9 8 -2 0 -6 -4
-9 -8z"/>
<path d="M3715 1339 c-4 -6 -5 -12 -2 -15 2 -3 7 2 10 11 7 17 1 20 -8 4z"/>
<path d="M5410 1311 c0 -6 4 -13 10 -16 6 -3 7 1 4 9 -7 18 -14 21 -14 7z"/>
<path d="M3830 1290 c0 -5 5 -10 11 -10 5 0 7 5 4 10 -3 6 -8 10 -11 10 -2 0
-4 -4 -4 -10z"/>
<path d="M5387 1289 c7 -7 15 -10 18 -7 3 3 -2 9 -12 12 -14 6 -15 5 -6 -5z"/>
<path d="M3876 1248 c3 -5 10 -6 15 -3 13 9 11 12 -6 12 -8 0 -12 -4 -9 -9z"/>
<path d="M3911 1217 c-8 -10 -7 -14 2 -14 8 0 14 6 14 14 0 7 -1 13 -2 13 -2
0 -8 -6 -14 -13z"/>
<path d="M5295 1190 c3 -5 8 -10 11 -10 2 0 4 5 4 10 0 6 -5 10 -11 10 -5 0
-7 -4 -4 -10z"/>
<path d="M5250 1149 c0 -5 5 -7 10 -4 6 3 10 8 10 11 0 2 -4 4 -10 4 -5 0 -10
-5 -10 -11z"/>
<path d="M5190 1091 c0 -6 4 -13 10 -16 6 -3 7 1 4 9 -7 18 -14 21 -14 7z"/>
<path d="M5267 1089 c7 -7 15 -10 18 -7 3 3 -2 9 -12 12 -14 6 -15 5 -6 -5z"/>
<path d="M3973 1075 c0 -8 4 -12 9 -9 5 3 6 10 3 15 -9 13 -12 11 -12 -6z"/>
<path d="M5156 1057 c3 -10 9 -15 12 -12 3 3 0 11 -7 18 -10 9 -11 8 -5 -6z"/>
<path d="M5079 963 c-12 -16 -12 -17 2 -6 9 7 20 9 24 5 5 -4 5 -1 1 6 -9 16
-11 15 -27 -5z"/>
<path d="M5050 909 c0 -5 5 -7 10 -4 6 3 10 8 10 11 0 2 -4 4 -10 4 -5 0 -10
-5 -10 -11z"/>
<path d="M4035 901 c-3 -5 -2 -12 3 -15 5 -3 9 1 9 9 0 17 -3 19 -12 6z"/>
<path d="M4113 865 c0 -8 4 -12 9 -9 5 3 6 10 3 15 -9 13 -12 11 -12 -6z"/>
<path d="M4175 830 c3 -5 8 -10 11 -10 2 0 4 5 4 10 0 6 -5 10 -11 10 -5 0 -7
-4 -4 -10z"/>
<path d="M4176 792 c-2 -4 -1 -14 4 -22 7 -11 9 -9 7 8 -1 24 -3 26 -11 14z"/>
<path d="M4976 748 c3 -4 11 -5 19 -1 21 7 19 12 -4 10 -11 0 -18 -5 -15 -9z"/>
<path d="M4236 732 c-3 -5 1 -9 9 -9 8 0 12 4 9 9 -3 4 -7 8 -9 8 -2 0 -6 -4
-9 -8z"/>
<path d="M4150 711 c0 -6 4 -13 10 -16 6 -3 7 1 4 9 -7 18 -14 21 -14 7z"/>
<path d="M4279 698 c-5 -18 -6 -38 -1 -34 7 8 12 36 6 36 -2 0 -4 -1 -5 -2z"/>
<path d="M4915 681 c-3 -5 -2 -12 3 -15 5 -3 9 1 9 9 0 17 -3 19 -12 6z"/>
<path d="M4350 651 c0 -6 4 -13 10 -16 6 -3 7 1 4 9 -7 18 -14 21 -14 7z"/>
<path d="M4850 629 c0 -5 5 -7 10 -4 6 3 10 8 10 11 0 2 -4 4 -10 4 -5 0 -10
-5 -10 -11z"/>
<path d="M4315 610 c3 -5 8 -10 11 -10 2 0 4 5 4 10 0 6 -5 10 -11 10 -5 0 -7
-4 -4 -10z"/>
<path d="M4375 561 c-3 -5 -2 -12 3 -15 5 -3 9 1 9 9 0 17 -3 19 -12 6z"/>
<path d="M4416 552 c-3 -5 1 -9 9 -9 8 0 12 4 9 9 -3 4 -7 8 -9 8 -2 0 -6 -4
-9 -8z"/>
<path d="M4745 530 c-3 -6 1 -7 9 -4 18 7 21 14 7 14 -6 0 -13 -4 -16 -10z"/>
<path d="M4406 512 c-3 -5 1 -9 9 -9 8 0 12 4 9 9 -3 4 -7 8 -9 8 -2 0 -6 -4
-9 -8z"/>
<path d="M4456 472 c-3 -4 4 -9 15 -9 23 -2 25 3 4 10 -8 4 -16 3 -19 -1z"/>
<path d="M4479 423 c-12 -16 -12 -17 2 -6 9 7 20 9 24 5 5 -4 5 -1 1 6 -9 16
-11 15 -27 -5z"/>
</g>
</svg>
